<?xml version="1.0" encoding="utf-8"?>
<!-- Generator: Adobe Illustrator 22.1.0, SVG Export Plug-In . SVG Version: 6.00 Build 0)  -->
<svg version="1.1" id="Layer_1" xmlns="http://www.w3.org/2000/svg" xmlns:xlink="http://www.w3.org/1999/xlink" x="0px" y="0px"
	 viewBox="0 0 100 100" style="enable-background:new 0 0 100 100;" xml:space="preserve">
<style type="text/css">
	.st0{fill:none;stroke:#000000;stroke-width:2.6304;stroke-linecap:round;stroke-linejoin:round;stroke-miterlimit:10;}
	.st1{enable-background:new    ;}
	.st2{fill:#231F20;}
</style>
<g>
	<line class="st0" x1="53.8" y1="17.8" x2="33.3" y2="17.8"/>
	<polyline class="st0" points="33.5,35.8 33.8,17.7 30,18.3 11.6,36.4 	"/>
	<g>
		<g>
			<path d="M64.4,38.6l-9.7,14.9h6.8c0.2-3.1,1.6-5.7,4.1-7.8s5.3-3.2,8.5-3.2c3.1,0,5.9,1.1,8.5,3.2c2.5,2.1,3.8,4.7,4,7.8h1.1
				c1.5,0,2.2-0.7,2.2-2.2v-5.2h-3.3v-7.5H64.4z"/>
			<path d="M11.4,35.4v18h2.9c0.2-3,1.5-5.6,4-7.7c2.5-2.1,5.4-3.2,8.5-3.2s5.9,1.1,8.5,3.2c2.5,2.1,3.8,4.7,4,7.7l13.3,0.1
				l10.8-16.6h23.1V33c-0.2-2.2-1.2-3.2-3-3H58.1L52,17.5c-0.3-0.7-1.2-1.1-1.9-0.7c-0.7,0.3-1.1,1.2-0.7,1.9l5.8,11.8l-0.2,9
				l-6-6.4l2.4-2.3c0.6-0.6,0.6-1.5,0-2.1s-1.5-0.6-2.1,0l-7,6.7c-0.6,0.6-0.6,1.5,0,2.1c0.3,0.3,0.7,0.4,1.1,0.4
				c0.4,0,0.7-0.1,1-0.4l2.5-2.4l7,7.5h-11c-2.5-4.2-5.8-6.6-9.7-7.1l-2.8-6.1c-0.3-0.7-1.2-1-1.9-0.7c-0.7,0.3-1,1.2-0.7,1.9
				l2.2,4.7H11.4V35.4z"/>
		</g>
	</g>
	<g>
		<path d="M26.7,46.3c-4.8,0-8.7,3.9-8.7,8.7s3.9,8.7,8.7,8.7s8.7-3.9,8.7-8.7S31.5,46.3,26.7,46.3z M26.7,49c3.3,0,6,2.7,6,6
			s-2.7,6-6,6s-6-2.7-6-6S23.4,49,26.7,49z"/>
		<path d="M26.7,51c-2.2,0-4,1.8-4,4s1.8,4,4,4s4-1.8,4-4C30.8,52.8,28.9,51,26.7,51z M26.7,53.7c0.8,0,1.3,0.6,1.3,1.3
			c0,0.8-0.6,1.3-1.3,1.3s-1.3-0.6-1.3-1.3C25.4,54.3,26,53.7,26.7,53.7z"/>
		<path d="M25.4,45.7v2h2.7v-2H25.4z"/>
		<path d="M25.4,62.4v2h2.7v-2H25.4z"/>
		<path d="M24,46l-2.4,1.1l0.8,1.8l2.4-1.1L24,46z"/>
		<path d="M31.1,61.1l-2.4,1.1l0.8,1.8l2.4-1.1L31.1,61.1z"/>
		<path d="M20.4,48l-1.7,2l1.5,1.3l1.7-2.1L20.4,48z"/>
		<path d="M33.2,58.7l-1.7,2.1l1.5,1.3l1.7-2.1L33.2,58.7z"/>
		<path d="M18,51.3l-0.7,2.6l1.9,0.5l0.7-2.6L18,51.3z"/>
		<path d="M34.2,55.6l-0.7,2.6l1.9,0.5l0.7-2.6L34.2,55.6z"/>
		<path d="M19.3,55l-2,0.3l0.5,2.6l2-0.3L19.3,55z"/>
		<path d="M35.7,52.1l-2,0.4l0.5,2.6l2-0.4L35.7,52.1z"/>
		<path d="M19.9,58.2l-1.6,1.2l1.5,2.2l1.6-1.2L19.9,58.2z"/>
		<path d="M33.7,48.6L32,49.7l1.5,2.2l1.6-1.2L33.7,48.6z"/>
		<path d="M21.9,60.7l-1,1.7l2.3,1.3l1-1.7L21.9,60.7z"/>
		<path d="M30.3,46.2l-1,1.7l2.3,1.3l1-1.7L30.3,46.2z"/>
	</g>
	<g>
		<path d="M74.1,46.3c-4.8,0-8.7,3.9-8.7,8.7s3.9,8.7,8.7,8.7s8.7-3.9,8.7-8.7C82.8,50.2,78.9,46.3,74.1,46.3z M74.1,49
			c3.3,0,6,2.7,6,6s-2.7,6-6,6s-6-2.7-6-6S70.7,49,74.1,49z"/>
		<path d="M74.1,51c-2.2,0-4,1.8-4,4s1.8,4,4,4s4-1.8,4-4S76.3,51,74.1,51z M74.1,53.7c0.8,0,1.3,0.6,1.3,1.3c0,0.8-0.6,1.3-1.3,1.3
			s-1.3-0.6-1.3-1.3C72.7,54.3,73.3,53.7,74.1,53.7z"/>
		<path d="M72.7,45.7v2h2.7v-2H72.7z"/>
		<path d="M72.7,62.4v2h2.7v-2H72.7z"/>
		<path d="M71.3,46l-2.4,1.1l0.8,1.8l2.4-1.1L71.3,46z"/>
		<path d="M78.4,61.1L76,62.3l0.8,1.8l2.4-1.1L78.4,61.1z"/>
		<path d="M67.8,48L66,50l1.5,1.3l1.7-2.1L67.8,48z"/>
		<path d="M80.6,58.7l-1.7,2.1l1.5,1.3l1.7-2.1L80.6,58.7z"/>
		<path d="M65.4,51.3l-0.7,2.6l1.9,0.5l0.7-2.6L65.4,51.3z"/>
		<path d="M81.5,55.6l-0.7,2.6l1.9,0.5l0.7-2.6L81.5,55.6z"/>
		<path d="M66.6,55l-2,0.3l0.5,2.6l2-0.3L66.6,55z"/>
		<path d="M83.1,52.1l-2,0.4l0.5,2.6l2-0.4L83.1,52.1z"/>
		<path d="M67.3,58.2l-1.6,1.2l1.5,2.2l1.6-1.2L67.3,58.2z"/>
		<path d="M81,48.6l-1.6,1.2l1.5,2.2l1.6-1.2L81,48.6z"/>
		<path d="M69.2,60.7l-1,1.7l2.3,1.3l1-1.7L69.2,60.7z"/>
		<path d="M77.6,46.2l-1,1.7l2.3,1.3l1-1.7L77.6,46.2z"/>
	</g>
</g>
<g class="st1">
	<path class="st2" d="M38.3,70.2h5v1.5H40v1.5h3.1v1.5H40v2.9h-1.6V70.2z"/>
	<path class="st2" d="M46.4,70.2h1.4l3.2,7.4h-1.9l-0.6-1.6h-2.9L45,77.7h-1.8L46.4,70.2z M47,72.4l-0.9,2.3h1.8L47,72.4z"/>
	<path class="st2" d="M55.4,72.1c-0.1-0.2-0.3-0.3-0.5-0.4c-0.2-0.1-0.4-0.1-0.6-0.1c-0.1,0-0.2,0-0.4,0c-0.1,0-0.2,0.1-0.4,0.1
		s-0.2,0.1-0.3,0.2c-0.1,0.1-0.1,0.2-0.1,0.4c0,0.2,0.1,0.4,0.3,0.5c0.2,0.1,0.4,0.2,0.6,0.3c0.3,0.1,0.5,0.2,0.8,0.3
		c0.3,0.1,0.6,0.2,0.8,0.4s0.5,0.4,0.6,0.6c0.2,0.3,0.3,0.6,0.3,1c0,0.4-0.1,0.8-0.2,1.1s-0.4,0.6-0.6,0.8c-0.3,0.2-0.6,0.4-0.9,0.5
		c-0.3,0.1-0.7,0.1-1.1,0.1c-0.5,0-0.9-0.1-1.3-0.2s-0.8-0.4-1.2-0.7l1.2-1.3c0.2,0.2,0.4,0.4,0.6,0.5c0.3,0.1,0.5,0.2,0.8,0.2
		c0.1,0,0.3,0,0.4,0s0.3-0.1,0.4-0.1c0.1-0.1,0.2-0.1,0.3-0.2c0.1-0.1,0.1-0.2,0.1-0.3c0-0.2-0.1-0.4-0.3-0.5s-0.4-0.2-0.6-0.3
		c-0.3-0.1-0.5-0.2-0.8-0.3c-0.3-0.1-0.6-0.2-0.8-0.4s-0.5-0.4-0.6-0.6c-0.2-0.3-0.3-0.6-0.3-1c0-0.4,0.1-0.8,0.2-1.1
		c0.2-0.3,0.4-0.6,0.6-0.8c0.3-0.2,0.6-0.4,0.9-0.5c0.3-0.1,0.7-0.2,1.1-0.2c0.4,0,0.8,0.1,1.2,0.2c0.4,0.1,0.7,0.3,1.1,0.6
		L55.4,72.1z"/>
	<path class="st2" d="M59.2,71.7h-2.1v-1.5H63v1.5h-2.1v6h-1.6V71.7z"/>
</g>
<g class="st1">
	<path class="st2" d="M36.6,81.6h2.8c0.3,0,0.6,0,1,0.1s0.6,0.1,0.9,0.3c0.3,0.1,0.5,0.3,0.6,0.6c0.2,0.2,0.2,0.6,0.2,1
		c0,0.4-0.1,0.8-0.4,1c-0.2,0.3-0.5,0.5-0.9,0.6v0c0.2,0,0.5,0.1,0.7,0.2c0.2,0.1,0.4,0.2,0.5,0.4c0.1,0.2,0.3,0.3,0.3,0.6
		s0.1,0.4,0.1,0.7c0,0.4-0.1,0.7-0.3,1s-0.4,0.5-0.7,0.6s-0.6,0.3-0.9,0.3c-0.3,0.1-0.7,0.1-1,0.1h-3.1V81.6z M38.2,84.6h1.2
		c0.1,0,0.3,0,0.4,0c0.1,0,0.2-0.1,0.3-0.1c0.1-0.1,0.2-0.1,0.2-0.3c0.1-0.1,0.1-0.2,0.1-0.4c0-0.2,0-0.3-0.1-0.4
		c-0.1-0.1-0.2-0.2-0.3-0.2c-0.1-0.1-0.2-0.1-0.4-0.1s-0.3,0-0.4,0h-1.1V84.6z M38.2,87.7h1.5c0.1,0,0.3,0,0.4,0s0.2-0.1,0.4-0.1
		c0.1-0.1,0.2-0.2,0.3-0.3c0.1-0.1,0.1-0.2,0.1-0.4c0-0.2,0-0.3-0.1-0.4c-0.1-0.1-0.2-0.2-0.3-0.2C40.2,86.1,40,86,39.9,86
		c-0.2,0-0.3,0-0.4,0h-1.2V87.7z"/>
	<path class="st2" d="M45.8,81.6h1.4l3.2,7.4h-1.9l-0.6-1.6H45l-0.6,1.6h-1.8L45.8,81.6z M46.5,83.8l-0.9,2.3h1.8L46.5,83.8z"/>
	<path class="st2" d="M56,83.6c-0.2-0.2-0.4-0.3-0.6-0.5C55.2,83,54.9,83,54.6,83c-0.3,0-0.6,0.1-0.9,0.2c-0.3,0.1-0.5,0.3-0.7,0.5
		c-0.2,0.2-0.3,0.5-0.5,0.8c-0.1,0.3-0.2,0.6-0.2,1c0,0.4,0.1,0.7,0.2,1c0.1,0.3,0.3,0.5,0.4,0.8s0.4,0.4,0.7,0.5
		c0.3,0.1,0.5,0.2,0.8,0.2c0.3,0,0.6-0.1,0.9-0.2c0.3-0.1,0.5-0.3,0.6-0.6l1.4,1c-0.3,0.4-0.7,0.8-1.2,1c-0.5,0.2-1,0.3-1.5,0.3
		c-0.6,0-1.1-0.1-1.6-0.3c-0.5-0.2-0.9-0.4-1.3-0.8c-0.4-0.3-0.6-0.8-0.8-1.2c-0.2-0.5-0.3-1-0.3-1.6c0-0.6,0.1-1.1,0.3-1.6
		c0.2-0.5,0.5-0.9,0.8-1.2s0.8-0.6,1.3-0.8c0.5-0.2,1-0.3,1.6-0.3c0.2,0,0.4,0,0.7,0.1c0.2,0,0.5,0.1,0.7,0.2s0.4,0.2,0.6,0.3
		c0.2,0.1,0.4,0.3,0.5,0.5L56,83.6z"/>
	<path class="st2" d="M58.4,81.6h1.6v3.1l2.9-3.1h2.1l-3.3,3.5l3.6,4h-2.3l-3-3.5v3.5h-1.6V81.6z"/>
</g>
</svg>
