<?xml version="1.0" encoding="utf-8"?>
<!-- Generator: Adobe Illustrator 22.1.0, SVG Export Plug-In . SVG Version: 6.00 Build 0)  -->
<svg version="1.1" id="Layer_1" xmlns="http://www.w3.org/2000/svg" xmlns:xlink="http://www.w3.org/1999/xlink" x="0px" y="0px"
	 viewBox="0 0 100 100" style="enable-background:new 0 0 100 100;" xml:space="preserve">
<style type="text/css">
	.st0{fill:none;stroke:#000000;stroke-width:3.551;stroke-miterlimit:10;}
	.st1{enable-background:new    ;}
	.st2{fill:#231F20;}
</style>
<g>
	<circle class="st0" cx="48.2" cy="40.5" r="23.5"/>
	<line class="st0" x1="31.8" y1="23.8" x2="65.3" y2="57.3"/>
	<path d="M48,50.5c-2,0-3.2,1-3.2,2.6c0,1.8,1.4,3.2,3.2,3.2s3.2-1.4,3.2-3.2C51.3,51.5,50.1,50.5,48,50.5z M48,55
		c-1,0-1.9-0.8-1.9-1.9c0-0.3,0-1.2,1.9-1.2s1.9,0.9,1.9,1.2C49.9,54.1,49.1,55,48,55z M57.4,24.7c-0.2-0.3-0.6-0.4-0.9-0.2
		c-0.2,0.1-0.4,0.3-0.6,0.4l-0.6-0.8c-0.2-0.3-0.6-0.3-0.9-0.1c-0.3,0.2-0.3,0.6-0.1,0.9l0.6,0.7c-0.4,0.4-0.8,0.7-1.2,1.1L53,26.1
		c-0.3-0.2-0.7-0.2-0.9,0.1c-0.2,0.3-0.2,0.7,0.1,0.9l0.7,0.6c-0.4,0.4-0.7,0.9-1,1.3L51,28.6c-0.3-0.2-0.7-0.1-0.9,0.2
		c-0.2,0.3-0.1,0.7,0.2,0.9l0.8,0.5c-0.3,0.5-0.5,1-0.7,1.5l-0.9-0.3c-0.3-0.1-0.7,0.1-0.8,0.4c-0.1,0.3,0.1,0.7,0.4,0.9L50,33
		c-0.1,0.3-0.1,0.5-0.2,0.7c-0.6-0.1-1.2-0.1-1.8-0.1c-0.7,0-1.3,0-1.8,0.1c0-0.2-0.1-0.5-0.2-0.8l0.9-0.3c0.3-0.1,0.5-0.5,0.4-0.9
		c-0.1-0.3-0.5-0.5-0.9-0.4l-0.9,0.3c-0.2-0.5-0.4-1-0.7-1.5l0.8-0.5c0.3-0.2,0.4-0.6,0.2-0.9s-0.6-0.4-0.9-0.2L44.1,29
		c-0.3-0.4-0.6-0.9-1-1.3l0.7-0.6c0.3-0.2,0.3-0.7,0.1-0.9c-0.2-0.3-0.7-0.3-0.9-0.1l-0.7,0.6c-0.4-0.4-0.8-0.8-1.2-1.1l0.6-0.7
		c0.2-0.3,0.2-0.7-0.1-0.9c-0.3-0.2-0.7-0.2-0.9,0.1l-0.6,0.8c-0.2-0.1-0.4-0.3-0.6-0.4c-0.3-0.2-0.7-0.1-0.9,0.2
		c-0.2,0.3-0.1,0.7,0.2,0.9c3.7,2.3,5.6,6,6,8.5c-0.5,0.2-1,0.5-1.5,1c-1.8,1.6-2.6,3-2.6,4.2c0,1.3,1,3,2.1,4.8
		c0.3,0.4,0.5,0.9,0.8,1.3c-0.2,1.9-0.5,3.1-0.7,4.1c-0.3,1.1-0.6,2.1-0.6,3.6c0,3.1,2.5,5.6,5.6,5.6s5.7-2.5,5.7-5.6
		c0-1.5-0.3-2.5-0.6-3.6c-0.3-1-0.6-2.2-0.7-4.1c0.2-0.4,0.5-0.9,0.8-1.3c1.1-1.8,2.1-3.5,2.1-4.8c0-1.2-0.8-2.6-2.6-4.2
		c-0.5-0.5-1-0.8-1.5-1c0.4-2.5,2.3-6.2,6-8.5C57.5,25.4,57.6,25,57.4,24.7z M47.4,35c0.2,0,0.4,0,0.7,0c0.2,0,0.5,0,0.7,0v9.1h-1.3
		V35H47.4z M42.2,39.3c0-0.6,0.4-1.6,2.2-3.2c0.6-0.5,1.1-0.8,1.7-0.9v4c-1.4,0.7-2.2,2.2-2.2,3.7V43C43,41.6,42.2,40.1,42.2,39.3z
		 M48,57.4c-2.4,0-4.3-1.9-4.3-4.3c0-1.3,0.2-2.2,0.5-3.2c0.4-1.4,0.9-3.3,0.9-7c0-0.8,0.3-1.6,0.9-2.1v4.1c0,0.4,0.3,0.7,0.7,0.7
		h2.7c0.4,0,0.7-0.3,0.7-0.7v-4.1c0.6,0.5,0.9,1.3,0.9,2.1c0,3.8,0.5,5.6,0.9,7c0.3,1.1,0.5,1.9,0.5,3.2
		C52.4,55.5,50.4,57.4,48,57.4z M51.8,36.1c1.8,1.7,2.2,2.7,2.2,3.2c0,0.8-0.8,2.3-1.6,3.7v-0.1c0-1.6-0.9-3-2.3-3.7v-4
		C50.7,35.3,51.2,35.5,51.8,36.1z"/>
</g>
<g class="st1">
	<path class="st2" d="M18.2,76.3l3.8-4.5h-3.6v-1.5h5.6v1.5l-3.7,4.5h3.8v1.5h-5.9V76.3z"/>
	<path class="st2" d="M25.2,70.4h1.6v7.4h-1.6V70.4z"/>
	<path class="st2" d="M28.3,70.4h2.8c0.4,0,0.8,0,1.1,0.1s0.6,0.2,0.9,0.4c0.3,0.2,0.5,0.4,0.6,0.7c0.2,0.3,0.2,0.7,0.2,1.1
		c0,0.4-0.1,0.8-0.2,1.1c-0.1,0.3-0.3,0.5-0.6,0.7c-0.2,0.2-0.5,0.3-0.9,0.4c-0.3,0.1-0.7,0.1-1.1,0.1h-1.2v2.9h-1.6V70.4z
		 M29.9,73.6H31c0.1,0,0.3,0,0.4,0c0.1,0,0.3-0.1,0.4-0.1c0.1-0.1,0.2-0.2,0.3-0.3c0.1-0.1,0.1-0.3,0.1-0.4c0-0.2,0-0.3-0.1-0.5
		c-0.1-0.1-0.2-0.2-0.3-0.3s-0.3-0.1-0.5-0.1s-0.3,0-0.5,0h-0.8V73.6z"/>
	<path class="st2" d="M34.9,70.4h2.8c0.4,0,0.8,0,1.1,0.1s0.6,0.2,0.9,0.4c0.3,0.2,0.5,0.4,0.6,0.7c0.2,0.3,0.2,0.7,0.2,1.1
		c0,0.4-0.1,0.8-0.2,1.1c-0.1,0.3-0.3,0.5-0.6,0.7c-0.2,0.2-0.5,0.3-0.9,0.4c-0.3,0.1-0.7,0.1-1.1,0.1h-1.2v2.9h-1.6V70.4z
		 M36.6,73.6h1.1c0.1,0,0.3,0,0.4,0c0.1,0,0.3-0.1,0.4-0.1c0.1-0.1,0.2-0.2,0.3-0.3c0.1-0.1,0.1-0.3,0.1-0.4c0-0.2,0-0.3-0.1-0.5
		c-0.1-0.1-0.2-0.2-0.3-0.3s-0.3-0.1-0.5-0.1s-0.3,0-0.5,0h-0.8V73.6z"/>
	<path class="st2" d="M41.6,70.4h5.1v1.5h-3.4v1.4h3.2v1.5h-3.2v1.5h3.6v1.5h-5.2V70.4z"/>
	<path class="st2" d="M48.2,70.4h2.9c0.4,0,0.7,0,1.1,0.1c0.3,0.1,0.6,0.2,0.9,0.4s0.5,0.4,0.6,0.7c0.2,0.3,0.2,0.7,0.2,1.1
		c0,0.5-0.1,1-0.4,1.3c-0.3,0.4-0.7,0.6-1.2,0.7l1.9,3.1h-2l-1.6-3h-0.8v3h-1.6V70.4z M49.8,73.5h1c0.1,0,0.3,0,0.5,0
		c0.2,0,0.3,0,0.4-0.1c0.1-0.1,0.2-0.1,0.3-0.2c0.1-0.1,0.1-0.3,0.1-0.5c0-0.2,0-0.3-0.1-0.5C52,72.1,51.9,72,51.8,72
		c-0.1-0.1-0.3-0.1-0.4-0.1c-0.2,0-0.3,0-0.5,0h-1.1V73.5z"/>
	<path class="st2" d="M55.1,70.4h1.6v5.9h3v1.5h-4.7V70.4z"/>
	<path class="st2" d="M60.7,70.4h5.1v1.5h-3.4v1.4h3.2v1.5h-3.2v1.5H66v1.5h-5.2V70.4z"/>
	<path class="st2" d="M71,72.2c-0.1-0.2-0.3-0.3-0.5-0.4c-0.2-0.1-0.4-0.1-0.6-0.1c-0.1,0-0.2,0-0.4,0c-0.1,0-0.2,0.1-0.4,0.1
		s-0.2,0.1-0.3,0.2c-0.1,0.1-0.1,0.2-0.1,0.4c0,0.2,0.1,0.4,0.3,0.5c0.2,0.1,0.4,0.2,0.6,0.3c0.3,0.1,0.5,0.2,0.8,0.3
		c0.3,0.1,0.6,0.2,0.8,0.4s0.5,0.4,0.6,0.6c0.2,0.3,0.3,0.6,0.3,1c0,0.4-0.1,0.8-0.2,1.1s-0.4,0.6-0.6,0.8c-0.3,0.2-0.6,0.4-0.9,0.5
		c-0.3,0.1-0.7,0.1-1.1,0.1c-0.5,0-0.9-0.1-1.3-0.2s-0.8-0.4-1.2-0.7l1.2-1.3c0.2,0.2,0.4,0.4,0.6,0.5c0.3,0.1,0.5,0.2,0.8,0.2
		c0.1,0,0.3,0,0.4,0s0.3-0.1,0.4-0.1c0.1-0.1,0.2-0.1,0.3-0.2c0.1-0.1,0.1-0.2,0.1-0.3c0-0.2-0.1-0.4-0.3-0.5s-0.4-0.2-0.6-0.3
		c-0.3-0.1-0.5-0.2-0.8-0.3c-0.3-0.1-0.6-0.2-0.8-0.4s-0.5-0.4-0.6-0.6c-0.2-0.3-0.3-0.6-0.3-1c0-0.4,0.1-0.8,0.2-1.1
		c0.2-0.3,0.4-0.6,0.6-0.8c0.3-0.2,0.6-0.4,0.9-0.5c0.3-0.1,0.7-0.2,1.1-0.2c0.4,0,0.8,0.1,1.2,0.2c0.4,0.1,0.7,0.3,1.1,0.6L71,72.2
		z"/>
	<path class="st2" d="M77,72.2c-0.1-0.2-0.3-0.3-0.5-0.4c-0.2-0.1-0.4-0.1-0.6-0.1c-0.1,0-0.2,0-0.4,0c-0.1,0-0.2,0.1-0.4,0.1
		s-0.2,0.1-0.3,0.2c-0.1,0.1-0.1,0.2-0.1,0.4c0,0.2,0.1,0.4,0.3,0.5c0.2,0.1,0.4,0.2,0.6,0.3c0.3,0.1,0.5,0.2,0.8,0.3
		c0.3,0.1,0.6,0.2,0.8,0.4s0.5,0.4,0.6,0.6c0.2,0.3,0.3,0.6,0.3,1c0,0.4-0.1,0.8-0.2,1.1s-0.4,0.6-0.6,0.8c-0.3,0.2-0.6,0.4-0.9,0.5
		c-0.3,0.1-0.7,0.1-1.1,0.1c-0.5,0-0.9-0.1-1.3-0.2s-0.8-0.4-1.2-0.7l1.2-1.3c0.2,0.2,0.4,0.4,0.6,0.5c0.3,0.1,0.5,0.2,0.8,0.2
		c0.1,0,0.3,0,0.4,0s0.3-0.1,0.4-0.1c0.1-0.1,0.2-0.1,0.3-0.2c0.1-0.1,0.1-0.2,0.1-0.3c0-0.2-0.1-0.4-0.3-0.5s-0.4-0.2-0.6-0.3
		c-0.3-0.1-0.5-0.2-0.8-0.3c-0.3-0.1-0.6-0.2-0.8-0.4s-0.5-0.4-0.6-0.6c-0.2-0.3-0.3-0.6-0.3-1c0-0.4,0.1-0.8,0.2-1.1
		c0.2-0.3,0.4-0.6,0.6-0.8c0.3-0.2,0.6-0.4,0.9-0.5c0.3-0.1,0.7-0.2,1.1-0.2c0.4,0,0.8,0.1,1.2,0.2c0.4,0.1,0.7,0.3,1.1,0.6L77,72.2
		z"/>
</g>
<g class="st1">
	<path class="st2" d="M28.6,81.8h2.5c0.6,0,1.2,0.1,1.7,0.2c0.5,0.1,1,0.3,1.4,0.6c0.4,0.3,0.7,0.7,1,1.2s0.4,1.1,0.4,1.7
		c0,0.6-0.1,1.1-0.3,1.6c-0.2,0.5-0.5,0.8-0.9,1.2s-0.8,0.5-1.3,0.7c-0.5,0.2-1,0.2-1.6,0.2h-2.7V81.8z M30.3,87.7h0.9
		c0.4,0,0.7,0,1.1-0.1s0.6-0.2,0.8-0.4c0.2-0.2,0.4-0.4,0.6-0.7s0.2-0.6,0.2-1.1c0-0.4-0.1-0.7-0.2-1c-0.1-0.3-0.3-0.5-0.6-0.7
		c-0.2-0.2-0.5-0.3-0.8-0.4s-0.6-0.1-1-0.1h-1V87.7z"/>
	<path class="st2" d="M36.7,81.8h5.1v1.5h-3.4v1.4h3.2v1.5h-3.2v1.5h3.6v1.5h-5.2V81.8z"/>
	<path class="st2" d="M46.9,83.6c-0.1-0.2-0.3-0.3-0.5-0.4c-0.2-0.1-0.4-0.1-0.6-0.1c-0.1,0-0.2,0-0.4,0c-0.1,0-0.2,0.1-0.4,0.1
		c-0.1,0.1-0.2,0.1-0.3,0.2c-0.1,0.1-0.1,0.2-0.1,0.4c0,0.2,0.1,0.4,0.3,0.5s0.4,0.2,0.6,0.3c0.3,0.1,0.5,0.2,0.8,0.3
		s0.6,0.2,0.8,0.4c0.3,0.2,0.5,0.4,0.6,0.6s0.3,0.6,0.3,1c0,0.4-0.1,0.8-0.2,1.1s-0.4,0.6-0.6,0.8c-0.3,0.2-0.6,0.4-0.9,0.5
		c-0.3,0.1-0.7,0.1-1.1,0.1c-0.5,0-0.9-0.1-1.3-0.2c-0.4-0.1-0.8-0.4-1.2-0.7l1.2-1.3c0.2,0.2,0.4,0.4,0.6,0.5
		c0.3,0.1,0.5,0.2,0.8,0.2c0.1,0,0.3,0,0.4,0s0.3-0.1,0.4-0.1c0.1-0.1,0.2-0.1,0.3-0.2c0.1-0.1,0.1-0.2,0.1-0.3
		c0-0.2-0.1-0.4-0.3-0.5s-0.4-0.2-0.6-0.3c-0.3-0.1-0.5-0.2-0.8-0.3c-0.3-0.1-0.6-0.2-0.8-0.4c-0.3-0.2-0.5-0.4-0.6-0.6
		c-0.2-0.3-0.3-0.6-0.3-1c0-0.4,0.1-0.8,0.2-1.1s0.4-0.6,0.6-0.8c0.3-0.2,0.6-0.4,0.9-0.5c0.3-0.1,0.7-0.2,1.1-0.2
		c0.4,0,0.8,0.1,1.2,0.2c0.4,0.1,0.7,0.3,1.1,0.6L46.9,83.6z"/>
	<path class="st2" d="M49.3,81.8h1.6v7.4h-1.6V81.8z"/>
	<path class="st2" d="M59.2,88.7c-0.5,0.3-1,0.4-1.5,0.5c-0.5,0.1-1.1,0.2-1.6,0.2c-0.6,0-1.1-0.1-1.6-0.3c-0.5-0.2-0.9-0.4-1.3-0.8
		c-0.4-0.3-0.6-0.8-0.8-1.2c-0.2-0.5-0.3-1-0.3-1.6c0-0.6,0.1-1.1,0.3-1.6c0.2-0.5,0.5-0.9,0.8-1.2s0.8-0.6,1.3-0.8
		c0.5-0.2,1-0.3,1.6-0.3c0.6,0,1.1,0.1,1.6,0.2c0.5,0.1,0.9,0.4,1.3,0.7l-1.2,1.3c-0.2-0.2-0.5-0.4-0.8-0.5
		c-0.3-0.1-0.6-0.2-1.1-0.2c-0.4,0-0.7,0.1-1,0.2s-0.5,0.3-0.7,0.5c-0.2,0.2-0.4,0.5-0.5,0.8c-0.1,0.3-0.2,0.6-0.2,1
		c0,0.4,0.1,0.7,0.2,1c0.1,0.3,0.3,0.5,0.5,0.8c0.2,0.2,0.4,0.4,0.7,0.5c0.3,0.1,0.6,0.2,1,0.2c0.4,0,0.7,0,0.9-0.1
		c0.3-0.1,0.5-0.2,0.6-0.2v-1.2h-1.3v-1.5h2.9V88.7z"/>
	<path class="st2" d="M60.6,81.8h2.2L66,87h0v-5.2h1.6v7.4h-2.1L62.3,84h0v5.3h-1.6V81.8z"/>
</g>
</svg>
