<?xml version="1.0" encoding="utf-8"?>
<!-- Generator: Adobe Illustrator 22.1.0, SVG Export Plug-In . SVG Version: 6.00 Build 0)  -->
<svg version="1.1" id="Layer_1" xmlns="http://www.w3.org/2000/svg" xmlns:xlink="http://www.w3.org/1999/xlink" x="0px" y="0px"
	 viewBox="0 0 100 100" style="enable-background:new 0 0 100 100;" xml:space="preserve">
<style type="text/css">
	.st0{enable-background:new    ;}
	.st1{fill:#231F20;}
	.st2{fill:none;stroke:#000000;stroke-width:3.6398;stroke-miterlimit:10;}
</style>
<g class="st0">
	<path class="st1" d="M20.6,71.1h-2.1v-1.5h5.9v1.5h-2.1v6h-1.6V71.1z"/>
	<path class="st1" d="M25.3,69.7h5.1v1.5h-3.4v1.4h3.2v1.5h-3.2v1.5h3.6v1.5h-5.2V69.7z"/>
	<path class="st1" d="M31.9,69.7h2.5l1.7,4.9h0l1.7-4.9h2.5v7.4h-1.6v-5.7h0l-2,5.7h-1.3l-1.9-5.7h0v5.7h-1.6V69.7z"/>
	<path class="st1" d="M41.8,69.7h2.8c0.4,0,0.8,0,1.1,0.1s0.6,0.2,0.9,0.4c0.3,0.2,0.5,0.4,0.6,0.7c0.2,0.3,0.2,0.7,0.2,1.1
		c0,0.4-0.1,0.8-0.2,1.1c-0.1,0.3-0.3,0.5-0.6,0.7c-0.2,0.2-0.5,0.3-0.9,0.4c-0.3,0.1-0.7,0.1-1.1,0.1h-1.2v2.9h-1.6V69.7z
		 M43.4,72.8h1.1c0.1,0,0.3,0,0.4,0c0.1,0,0.3-0.1,0.4-0.1c0.1-0.1,0.2-0.2,0.3-0.3c0.1-0.1,0.1-0.3,0.1-0.4c0-0.2,0-0.3-0.1-0.5
		c-0.1-0.1-0.2-0.2-0.3-0.3s-0.3-0.1-0.5-0.1s-0.3,0-0.5,0h-0.8V72.8z"/>
	<path class="st1" d="M48.5,69.7h5.1v1.5h-3.4v1.4h3.2v1.5h-3.2v1.5h3.6v1.5h-5.2V69.7z"/>
	<path class="st1" d="M55.1,69.7h2.9c0.4,0,0.7,0,1.1,0.1c0.3,0.1,0.6,0.2,0.9,0.4c0.3,0.2,0.5,0.4,0.6,0.7c0.2,0.3,0.2,0.7,0.2,1.1
		c0,0.5-0.1,1-0.4,1.3c-0.3,0.4-0.7,0.6-1.2,0.7l1.9,3.1h-2l-1.6-3h-0.8v3h-1.6V69.7z M56.7,72.8h1c0.1,0,0.3,0,0.5,0
		c0.2,0,0.3,0,0.4-0.1s0.2-0.1,0.3-0.2c0.1-0.1,0.1-0.3,0.1-0.5c0-0.2,0-0.3-0.1-0.5c-0.1-0.1-0.2-0.2-0.3-0.3
		c-0.1-0.1-0.3-0.1-0.4-0.1c-0.2,0-0.3,0-0.5,0h-1.1V72.8z"/>
	<path class="st1" d="M61.9,69.7H67v1.5h-3.4v1.4h3.2v1.5h-3.2v1.5h3.6v1.5h-5.2V69.7z"/>
	<path class="st1" d="M68.5,69.7H71c0.6,0,1.2,0.1,1.7,0.2c0.5,0.1,1,0.3,1.4,0.6c0.4,0.3,0.7,0.7,1,1.2s0.4,1.1,0.4,1.7
		c0,0.6-0.1,1.1-0.3,1.6c-0.2,0.5-0.5,0.8-0.9,1.2s-0.8,0.5-1.3,0.7c-0.5,0.2-1,0.2-1.6,0.2h-2.7V69.7z M70.1,75.6H71
		c0.4,0,0.7,0,1.1-0.1s0.6-0.2,0.8-0.4c0.2-0.2,0.4-0.4,0.6-0.7s0.2-0.6,0.2-1.1c0-0.4-0.1-0.7-0.2-1c-0.1-0.3-0.3-0.5-0.6-0.7
		c-0.2-0.2-0.5-0.3-0.8-0.4s-0.6-0.1-1-0.1h-1V75.6z"/>
</g>
<g class="st0">
	<path class="st1" d="M34.8,88c-0.5,0.3-1,0.4-1.5,0.5c-0.5,0.1-1.1,0.2-1.6,0.2c-0.6,0-1.1-0.1-1.6-0.3c-0.5-0.2-0.9-0.4-1.3-0.8
		c-0.4-0.3-0.6-0.8-0.8-1.2c-0.2-0.5-0.3-1-0.3-1.6c0-0.6,0.1-1.1,0.3-1.6c0.2-0.5,0.5-0.9,0.8-1.2c0.4-0.3,0.8-0.6,1.3-0.8
		c0.5-0.2,1-0.3,1.6-0.3c0.6,0,1.1,0.1,1.6,0.2s0.9,0.4,1.3,0.7l-1.2,1.3c-0.2-0.2-0.5-0.4-0.8-0.5c-0.3-0.1-0.6-0.2-1.1-0.2
		c-0.4,0-0.7,0.1-1,0.2s-0.5,0.3-0.7,0.5c-0.2,0.2-0.4,0.5-0.5,0.8c-0.1,0.3-0.2,0.6-0.2,1c0,0.4,0.1,0.7,0.2,1s0.3,0.5,0.5,0.8
		s0.4,0.4,0.7,0.5c0.3,0.1,0.6,0.2,1,0.2c0.4,0,0.7,0,0.9-0.1c0.3-0.1,0.5-0.2,0.6-0.2v-1.2h-1.3v-1.5h2.9V88z"/>
	<path class="st1" d="M36.3,81.1H38V87h3v1.5h-4.7V81.1z"/>
	<path class="st1" d="M44.4,81.1h1.4l3.2,7.4h-1.9L46.5,87h-2.9L43,88.5h-1.8L44.4,81.1z M45,83.3l-0.9,2.3h1.8L45,83.3z"/>
	<path class="st1" d="M53.4,82.9c-0.1-0.2-0.3-0.3-0.5-0.4c-0.2-0.1-0.4-0.1-0.6-0.1c-0.1,0-0.2,0-0.4,0c-0.1,0-0.2,0.1-0.4,0.1
		c-0.1,0.1-0.2,0.1-0.3,0.2c-0.1,0.1-0.1,0.2-0.1,0.4c0,0.2,0.1,0.4,0.3,0.5c0.2,0.1,0.4,0.2,0.6,0.3c0.3,0.1,0.5,0.2,0.8,0.3
		c0.3,0.1,0.6,0.2,0.8,0.4c0.3,0.2,0.5,0.4,0.6,0.6c0.2,0.3,0.3,0.6,0.3,1c0,0.4-0.1,0.8-0.2,1.1s-0.4,0.6-0.6,0.8s-0.6,0.4-0.9,0.5
		c-0.3,0.1-0.7,0.1-1.1,0.1c-0.5,0-0.9-0.1-1.3-0.2c-0.4-0.1-0.8-0.4-1.2-0.7l1.2-1.3c0.2,0.2,0.4,0.4,0.6,0.5
		c0.3,0.1,0.5,0.2,0.8,0.2c0.1,0,0.3,0,0.4,0s0.3-0.1,0.4-0.1c0.1-0.1,0.2-0.1,0.3-0.2c0.1-0.1,0.1-0.2,0.1-0.3
		c0-0.2-0.1-0.4-0.3-0.5s-0.4-0.2-0.6-0.3c-0.3-0.1-0.5-0.2-0.8-0.3c-0.3-0.1-0.6-0.2-0.8-0.4c-0.3-0.2-0.5-0.4-0.6-0.6
		c-0.2-0.3-0.3-0.6-0.3-1c0-0.4,0.1-0.8,0.2-1.1s0.4-0.6,0.6-0.8c0.3-0.2,0.6-0.4,0.9-0.5c0.3-0.1,0.7-0.2,1.1-0.2
		c0.4,0,0.8,0.1,1.2,0.2c0.4,0.1,0.7,0.3,1.1,0.6L53.4,82.9z"/>
	<path class="st1" d="M59.4,82.9c-0.1-0.2-0.3-0.3-0.5-0.4c-0.2-0.1-0.4-0.1-0.6-0.1c-0.1,0-0.2,0-0.4,0c-0.1,0-0.2,0.1-0.4,0.1
		c-0.1,0.1-0.2,0.1-0.3,0.2c-0.1,0.1-0.1,0.2-0.1,0.4c0,0.2,0.1,0.4,0.3,0.5c0.2,0.1,0.4,0.2,0.6,0.3c0.3,0.1,0.5,0.2,0.8,0.3
		c0.3,0.1,0.6,0.2,0.8,0.4c0.3,0.2,0.5,0.4,0.6,0.6c0.2,0.3,0.3,0.6,0.3,1c0,0.4-0.1,0.8-0.2,1.1s-0.4,0.6-0.6,0.8s-0.6,0.4-0.9,0.5
		c-0.3,0.1-0.7,0.1-1.1,0.1c-0.5,0-0.9-0.1-1.3-0.2c-0.4-0.1-0.8-0.4-1.2-0.7l1.2-1.3c0.2,0.2,0.4,0.4,0.6,0.5s0.5,0.2,0.8,0.2
		c0.1,0,0.3,0,0.4,0s0.3-0.1,0.4-0.1c0.1-0.1,0.2-0.1,0.3-0.2c0.1-0.1,0.1-0.2,0.1-0.3c0-0.2-0.1-0.4-0.3-0.5s-0.4-0.2-0.6-0.3
		c-0.3-0.1-0.5-0.2-0.8-0.3c-0.3-0.1-0.6-0.2-0.8-0.4c-0.3-0.2-0.5-0.4-0.6-0.6c-0.2-0.3-0.3-0.6-0.3-1c0-0.4,0.1-0.8,0.2-1.1
		c0.2-0.3,0.4-0.6,0.6-0.8s0.6-0.4,0.9-0.5c0.3-0.1,0.7-0.2,1.1-0.2c0.4,0,0.8,0.1,1.2,0.2c0.4,0.1,0.7,0.3,1.1,0.6L59.4,82.9z"/>
</g>
<g>
	<g>
		<g transform="translate(-120.000000, -792.000000)">
			<g transform="translate(120.000000, 792.000000)">
				<path d="M59.7,31.6L41.2,50.1c-0.7,0.7-1.9,0.7-2.6,0c-0.7-0.7-0.7-1.9,0-2.6L57.2,29c0.7-0.7,1.9-0.7,2.6,0
					S60.4,30.9,59.7,31.6L59.7,31.6z"/>
				<path d="M60.9,43.7l-7.6,7.6c-0.7,0.7-1.9,0.7-2.6,0c-0.7-0.7-0.7-1.9,0-2.6l7.6-7.6c0.7-0.7,1.9-0.7,2.6,0
					C61.7,41.8,61.7,43,60.9,43.7L60.9,43.7z"/>
				<path d="M47.6,30.4L40,38c-0.7,0.7-1.9,0.7-2.6,0c-0.7-0.7-0.7-1.9,0-2.6l7.6-7.6c0.7-0.7,1.9-0.7,2.6,0
					C48.3,28.5,48.3,29.6,47.6,30.4L47.6,30.4z"/>
			</g>
		</g>
	</g>
	<g>
		<path class="st2" d="M71.5,58c-0.2,0.9-1,1.6-1.9,1.6H24c-0.9,0-1.5-0.7-1.3-1.6l6.7-36.8c0.2-0.9,1-1.6,1.9-1.6h45.6
			c0.9,0,1.5,0.7,1.3,1.6L71.5,58z"/>
	</g>
</g>
</svg>
