<?xml version="1.0" encoding="utf-8"?>
<!-- Generator: Adobe Illustrator 22.1.0, SVG Export Plug-In . SVG Version: 6.00 Build 0)  -->
<svg version="1.1" id="Layer_1" xmlns="http://www.w3.org/2000/svg" xmlns:xlink="http://www.w3.org/1999/xlink" x="0px" y="0px"
	 viewBox="0 0 100 100" style="enable-background:new 0 0 100 100;" xml:space="preserve">
<style type="text/css">
	.st0{fill:none;stroke:#000000;stroke-width:2.6304;stroke-linecap:round;stroke-linejoin:round;stroke-miterlimit:10;}
	.st1{enable-background:new    ;}
	.st2{fill:#231F20;}
</style>
<g>
	<line class="st0" x1="53.8" y1="17.8" x2="33.3" y2="17.8"/>
	<polyline class="st0" points="33.6,35.8 33.6,17.9 13.4,18.5 12,36.3 	"/>
	<g>
		<g>
			<path d="M64.4,38.6l-9.7,14.9h6.8c0.2-3.1,1.6-5.7,4.1-7.8s5.3-3.2,8.5-3.2c3.1,0,5.9,1.1,8.5,3.2c2.5,2.1,3.8,4.7,4,7.8h1.1
				c1.5,0,2.2-0.7,2.2-2.2v-5.2h-3.3v-7.5H64.4z"/>
			<path d="M11.5,35.4v18h2.9c0.2-3,1.5-5.6,4-7.7c2.5-2.1,5.4-3.2,8.5-3.2s5.9,1.1,8.5,3.2c2.5,2.1,3.8,4.7,4,7.7l13.3,0.1
				l10.8-16.6h23.1V33c-0.2-2.2-1.2-3.2-3-3H58.2L52,17.5c-0.3-0.7-1.2-1.1-1.9-0.7c-0.7,0.3-1.1,1.2-0.7,1.9l5.8,11.8l-0.2,9
				l-5.9-6.3l2.4-2.3c0.6-0.6,0.6-1.5,0-2.1s-1.5-0.6-2.1,0l-7,6.7c-0.6,0.6-0.6,1.5,0,2.1c0.3,0.3,0.7,0.4,1.1,0.4
				c0.4,0,0.7-0.1,1-0.4l2.5-2.4l7,7.5H43c-2.5-4.2-5.8-6.6-9.7-7.1l-2.8-6.1c-0.3-0.7-1.2-1-1.9-0.7c-0.7,0.3-1,1.2-0.7,1.9
				l2.2,4.7C30.1,35.4,11.5,35.4,11.5,35.4z"/>
		</g>
	</g>
	<g>
		<path d="M26.8,46.3c-4.8,0-8.7,3.9-8.7,8.7s3.9,8.7,8.7,8.7s8.7-3.9,8.7-8.7S31.6,46.3,26.8,46.3z M26.8,49c3.3,0,6,2.7,6,6
			s-2.7,6-6,6s-6-2.7-6-6S23.5,49,26.8,49z"/>
		<path d="M26.8,51c-2.2,0-4,1.8-4,4s1.8,4,4,4s4-1.8,4-4C30.9,52.8,29,51,26.8,51z M26.8,53.7c0.8,0,1.3,0.6,1.3,1.3
			c0,0.8-0.6,1.3-1.3,1.3s-1.3-0.6-1.3-1.3S26.1,53.7,26.8,53.7z"/>
		<path d="M25.5,45.7v2h2.7v-2H25.5z"/>
		<path d="M25.5,62.4v2h2.7v-2H25.5z"/>
		<path d="M24.1,46l-2.4,1.1l0.8,1.8l2.4-1.1L24.1,46z"/>
		<path d="M31.2,61.1l-2.4,1.1l0.8,1.8l2.4-1L31.2,61.1z"/>
		<path d="M20.5,48l-1.7,2l1.5,1.3l1.7-2.1L20.5,48z"/>
		<path d="M33.3,58.7l-1.7,2.1l1.5,1.3l1.7-2.1L33.3,58.7z"/>
		<path d="M18.1,51.3l-0.7,2.6l1.9,0.5l0.7-2.6L18.1,51.3z"/>
		<path d="M34.3,55.6l-0.7,2.6l1.9,0.5l0.7-2.6L34.3,55.6z"/>
		<path d="M19.4,55l-2,0.3l0.5,2.6l2-0.3L19.4,55z"/>
		<path d="M35.8,52.1l-2,0.4l0.5,2.6l2-0.4L35.8,52.1z"/>
		<path d="M20,58.2l-1.6,1.2l1.5,2.2l1.6-1.2L20,58.2z"/>
		<path d="M33.8,48.6l-1.6,1.2l1.5,2.2l1.6-1.2L33.8,48.6z"/>
		<path d="M22,60.7l-1,1.7l2.3,1.3l1-1.7L22,60.7z"/>
		<path d="M30.4,46.2l-1,1.7l2.3,1.3l1-1.7L30.4,46.2z"/>
	</g>
	<g>
		<path d="M74.2,46.3c-4.8,0-8.7,3.9-8.7,8.7s3.9,8.7,8.7,8.7c4.8,0,8.7-3.9,8.7-8.7C82.9,50.2,79,46.3,74.2,46.3z M74.2,49
			c3.3,0,6,2.7,6,6s-2.7,6-6,6s-6-2.7-6-6S70.8,49,74.2,49z"/>
		<path d="M74.2,51c-2.2,0-4,1.8-4,4s1.8,4,4,4s4-1.8,4-4S76.4,51,74.2,51z M74.2,53.7c0.8,0,1.3,0.6,1.3,1.3c0,0.8-0.6,1.3-1.3,1.3
			c-0.8,0-1.3-0.6-1.3-1.3C72.8,54.3,73.4,53.7,74.2,53.7z"/>
		<path d="M72.8,45.7v2h2.7v-2H72.8z"/>
		<path d="M72.8,62.4v2h2.7v-2H72.8z"/>
		<path d="M71.4,46L69,47.1l0.8,1.8l2.4-1.1L71.4,46z"/>
		<path d="M78.5,61.1l-2.4,1.1l0.8,1.8l2.4-1.1L78.5,61.1z"/>
		<path d="M67.9,48l-1.8,2l1.5,1.3l1.7-2.1L67.9,48z"/>
		<path d="M80.7,58.7L79,60.8l1.5,1.3l1.7-2.1L80.7,58.7z"/>
		<path d="M65.5,51.3l-0.7,2.6l1.9,0.5l0.7-2.6L65.5,51.3z"/>
		<path d="M81.6,55.6L81,58.2l1.9,0.5l0.7-2.6L81.6,55.6z"/>
		<path d="M66.7,55l-2,0.3l0.5,2.6l2-0.3L66.7,55z"/>
		<path d="M83.2,52.1l-2,0.4l0.5,2.6l2-0.4L83.2,52.1z"/>
		<path d="M67.4,58.2l-1.6,1.2l1.5,2.2l1.6-1.2L67.4,58.2z"/>
		<path d="M81.1,48.6l-1.6,1.2L81,52l1.6-1.2L81.1,48.6z"/>
		<path d="M69.3,60.7l-1,1.7l2.3,1.3l1-1.7L69.3,60.7z"/>
		<path d="M77.7,46.2l-1,1.7l2.3,1.3l1-1.7L77.7,46.2z"/>
	</g>
</g>
<g class="st1">
	<path class="st2" d="M15.9,71.7h-2.1v-1.5h5.9v1.5h-2.1v6h-1.6V71.7z"/>
	<path class="st2" d="M20.5,70.2h2.9c0.4,0,0.7,0,1.1,0.1c0.3,0.1,0.6,0.2,0.9,0.4c0.3,0.2,0.5,0.4,0.6,0.7c0.2,0.3,0.2,0.7,0.2,1.1
		c0,0.5-0.1,1-0.4,1.3c-0.3,0.4-0.7,0.6-1.2,0.7l1.9,3.1h-2l-1.6-3h-0.8v3h-1.6V70.2z M22.1,73.3h1c0.1,0,0.3,0,0.5,0
		c0.2,0,0.3,0,0.4-0.1s0.2-0.1,0.3-0.2c0.1-0.1,0.1-0.3,0.1-0.5c0-0.2,0-0.3-0.1-0.5c-0.1-0.1-0.2-0.2-0.3-0.3
		c-0.1-0.1-0.3-0.1-0.4-0.1c-0.2,0-0.3,0-0.5,0h-1.1V73.3z"/>
	<path class="st2" d="M29.7,70.2h1.4l3.2,7.4h-1.9l-0.6-1.6h-2.9l-0.6,1.6h-1.8L29.7,70.2z M30.4,72.4l-0.9,2.3h1.8L30.4,72.4z"/>
	<path class="st2" d="M35.1,70.2h2.5c0.6,0,1.2,0.1,1.7,0.2c0.5,0.1,1,0.3,1.4,0.6c0.4,0.3,0.7,0.7,1,1.2s0.4,1.1,0.4,1.7
		c0,0.6-0.1,1.1-0.3,1.6c-0.2,0.5-0.5,0.8-0.9,1.2s-0.8,0.5-1.3,0.7c-0.5,0.2-1,0.2-1.6,0.2h-2.7V70.2z M36.7,76.2h0.9
		c0.4,0,0.7,0,1.1-0.1s0.6-0.2,0.8-0.4c0.2-0.2,0.4-0.4,0.6-0.7s0.2-0.6,0.2-1.1c0-0.4-0.1-0.7-0.2-1c-0.1-0.3-0.3-0.5-0.6-0.7
		c-0.2-0.2-0.5-0.3-0.8-0.4s-0.6-0.1-1-0.1h-1V76.2z"/>
	<path class="st2" d="M43,70.2h1.6v7.4H43V70.2z"/>
	<path class="st2" d="M47.6,71.7h-2.1v-1.5h5.9v1.5h-2.1v6h-1.6V71.7z"/>
	<path class="st2" d="M52.2,70.2h1.6v7.4h-1.6V70.2z"/>
	<path class="st2" d="M54.9,74c0-0.6,0.1-1.1,0.3-1.6c0.2-0.5,0.5-0.9,0.8-1.2c0.4-0.3,0.8-0.6,1.3-0.8c0.5-0.2,1-0.3,1.6-0.3
		c0.6,0,1.1,0.1,1.6,0.3c0.5,0.2,0.9,0.4,1.3,0.8c0.4,0.3,0.6,0.8,0.8,1.2c0.2,0.5,0.3,1,0.3,1.6c0,0.6-0.1,1.1-0.3,1.6
		c-0.2,0.5-0.5,0.9-0.8,1.2c-0.4,0.3-0.8,0.6-1.3,0.8s-1,0.3-1.6,0.3c-0.6,0-1.1-0.1-1.6-0.3s-0.9-0.4-1.3-0.8
		c-0.4-0.3-0.6-0.8-0.8-1.2C55,75.1,54.9,74.6,54.9,74z M56.6,74c0,0.4,0.1,0.7,0.2,1c0.1,0.3,0.3,0.5,0.5,0.8
		c0.2,0.2,0.4,0.4,0.7,0.5c0.3,0.1,0.6,0.2,1,0.2c0.4,0,0.7-0.1,1-0.2c0.3-0.1,0.5-0.3,0.7-0.5c0.2-0.2,0.4-0.5,0.5-0.8
		s0.2-0.6,0.2-1c0-0.3-0.1-0.7-0.2-1c-0.1-0.3-0.3-0.5-0.5-0.8c-0.2-0.2-0.4-0.4-0.7-0.5s-0.6-0.2-1-0.2c-0.4,0-0.7,0.1-1,0.2
		s-0.5,0.3-0.7,0.5c-0.2,0.2-0.4,0.5-0.5,0.8C56.7,73.3,56.6,73.6,56.6,74z"/>
	<path class="st2" d="M64.1,70.2h2.2l3.2,5.2h0v-5.2h1.6v7.4H69l-3.3-5.3h0v5.3h-1.6V70.2z"/>
	<path class="st2" d="M75.1,70.2h1.4l3.2,7.4h-1.9l-0.6-1.6h-2.9l-0.6,1.6h-1.8L75.1,70.2z M75.7,72.4l-0.9,2.3h1.8L75.7,72.4z"/>
	<path class="st2" d="M80.5,70.2h1.6v5.9h3v1.5h-4.7V70.2z"/>
</g>
<g class="st1">
	<path class="st2" d="M35.5,81.6h2.8c0.3,0,0.6,0,1,0.1s0.6,0.1,0.9,0.3c0.3,0.1,0.5,0.3,0.6,0.6c0.2,0.2,0.2,0.6,0.2,1
		c0,0.4-0.1,0.8-0.4,1c-0.2,0.3-0.5,0.5-0.9,0.6v0c0.2,0,0.5,0.1,0.7,0.2c0.2,0.1,0.4,0.2,0.5,0.4c0.1,0.2,0.3,0.3,0.3,0.6
		s0.1,0.4,0.1,0.7c0,0.4-0.1,0.7-0.3,1s-0.4,0.5-0.7,0.6s-0.6,0.3-0.9,0.3c-0.3,0.1-0.7,0.1-1,0.1h-3.1V81.6z M37.2,84.6h1.2
		c0.1,0,0.3,0,0.4,0c0.1,0,0.2-0.1,0.3-0.1c0.1-0.1,0.2-0.1,0.2-0.3c0.1-0.1,0.1-0.2,0.1-0.4c0-0.2,0-0.3-0.1-0.4
		c-0.1-0.1-0.2-0.2-0.3-0.2c-0.1-0.1-0.2-0.1-0.4-0.1s-0.3,0-0.4,0h-1.1V84.6z M37.2,87.7h1.5c0.1,0,0.3,0,0.4,0s0.2-0.1,0.4-0.1
		c0.1-0.1,0.2-0.2,0.3-0.3c0.1-0.1,0.1-0.2,0.1-0.4c0-0.2,0-0.3-0.1-0.4c-0.1-0.1-0.2-0.2-0.3-0.2C39.1,86.1,39,86,38.8,86
		c-0.2,0-0.3,0-0.4,0h-1.2V87.7z"/>
	<path class="st2" d="M44.8,81.6h1.4l3.2,7.4h-1.9l-0.6-1.6H44l-0.6,1.6h-1.8L44.8,81.6z M45.4,83.8l-0.9,2.3h1.8L45.4,83.8z"/>
	<path class="st2" d="M55,83.6c-0.2-0.2-0.4-0.3-0.6-0.5C54.2,83,53.9,83,53.6,83c-0.3,0-0.6,0.1-0.9,0.2c-0.3,0.1-0.5,0.3-0.7,0.5
		c-0.2,0.2-0.3,0.5-0.5,0.8c-0.1,0.3-0.2,0.6-0.2,1c0,0.4,0.1,0.7,0.2,1c0.1,0.3,0.3,0.5,0.4,0.8s0.4,0.4,0.7,0.5
		c0.3,0.1,0.5,0.2,0.8,0.2c0.3,0,0.6-0.1,0.9-0.2c0.3-0.1,0.5-0.3,0.6-0.6l1.4,1c-0.3,0.4-0.7,0.8-1.2,1c-0.5,0.2-1,0.3-1.5,0.3
		c-0.6,0-1.1-0.1-1.6-0.3c-0.5-0.2-0.9-0.4-1.3-0.8c-0.4-0.3-0.6-0.8-0.8-1.2c-0.2-0.5-0.3-1-0.3-1.6c0-0.6,0.1-1.1,0.3-1.6
		c0.2-0.5,0.5-0.9,0.8-1.2c0.4-0.3,0.8-0.6,1.3-0.8c0.5-0.2,1-0.3,1.6-0.3c0.2,0,0.4,0,0.7,0.1c0.2,0,0.5,0.1,0.7,0.2
		s0.4,0.2,0.6,0.3c0.2,0.1,0.4,0.3,0.5,0.5L55,83.6z"/>
	<path class="st2" d="M57.4,81.6H59v3.1l2.9-3.1h2.1l-3.3,3.5l3.6,4h-2.3l-3-3.5v3.5h-1.6V81.6z"/>
</g>
</svg>
