<?xml version="1.0" encoding="utf-8"?>
<!-- Generator: Adobe Illustrator 22.1.0, SVG Export Plug-In . SVG Version: 6.00 Build 0)  -->
<svg version="1.1" id="Layer_1" xmlns="http://www.w3.org/2000/svg" xmlns:xlink="http://www.w3.org/1999/xlink" x="0px" y="0px"
	 viewBox="0 0 100 100" style="enable-background:new 0 0 100 100;" xml:space="preserve">
<style type="text/css">
	.st0{enable-background:new    ;}
	.st1{fill:#231F20;}
</style>
<g class="st0">
	<path class="st1" d="M37.9,70.5H43V72h-3.4v1.4h3.2v1.5h-3.2v1.5h3.6V78h-5.2V70.5z"/>
	<path class="st1" d="M46.9,70.5h1.4l3.2,7.4h-1.9L49,76.4h-2.9L45.5,78h-1.8L46.9,70.5z M47.6,72.7L46.7,75h1.8L47.6,72.7z"/>
	<path class="st1" d="M56,72.3c-0.1-0.2-0.3-0.3-0.5-0.4c-0.2-0.1-0.4-0.1-0.6-0.1c-0.1,0-0.2,0-0.4,0c-0.1,0-0.2,0.1-0.4,0.1
		c-0.1,0.1-0.2,0.1-0.3,0.2c-0.1,0.1-0.1,0.2-0.1,0.4c0,0.2,0.1,0.4,0.3,0.5c0.2,0.1,0.4,0.2,0.6,0.3c0.3,0.1,0.5,0.2,0.8,0.3
		c0.3,0.1,0.6,0.2,0.8,0.4c0.3,0.2,0.5,0.4,0.6,0.6c0.2,0.3,0.3,0.6,0.3,1c0,0.4-0.1,0.8-0.2,1.1s-0.4,0.6-0.6,0.8s-0.6,0.4-0.9,0.5
		c-0.3,0.1-0.7,0.1-1.1,0.1c-0.5,0-0.9-0.1-1.3-0.2c-0.4-0.1-0.8-0.4-1.2-0.7l1.2-1.3c0.2,0.2,0.4,0.4,0.6,0.5s0.5,0.2,0.8,0.2
		c0.1,0,0.3,0,0.4,0s0.3-0.1,0.4-0.1c0.1-0.1,0.2-0.1,0.3-0.2c0.1-0.1,0.1-0.2,0.1-0.3c0-0.2-0.1-0.4-0.3-0.5s-0.4-0.2-0.6-0.3
		c-0.3-0.1-0.5-0.2-0.8-0.3c-0.3-0.1-0.6-0.2-0.8-0.4c-0.3-0.2-0.5-0.4-0.6-0.6c-0.2-0.3-0.3-0.6-0.3-1c0-0.4,0.1-0.8,0.2-1.1
		c0.2-0.3,0.4-0.6,0.6-0.8s0.6-0.4,0.9-0.5c0.3-0.1,0.7-0.2,1.1-0.2c0.4,0,0.8,0.1,1.2,0.2c0.4,0.1,0.7,0.3,1.1,0.6L56,72.3z"/>
	<path class="st1" d="M60.1,74.8l-2.8-4.3h2l1.6,2.8l1.7-2.8h1.9l-2.8,4.3V78h-1.6V74.8z"/>
</g>
<g class="st0">
	<path class="st1" d="M30,81.9h1.6v7.4H30V81.9z"/>
	<path class="st1" d="M33.2,81.9h2.2l3.2,5.2h0v-5.2h1.6v7.4h-2.1l-3.3-5.3h0v5.3h-1.6V81.9z"/>
	<path class="st1" d="M45.4,83.7c-0.1-0.2-0.3-0.3-0.5-0.4c-0.2-0.1-0.4-0.1-0.6-0.1c-0.1,0-0.2,0-0.4,0c-0.1,0-0.2,0.1-0.4,0.1
		c-0.1,0.1-0.2,0.1-0.3,0.2c-0.1,0.1-0.1,0.2-0.1,0.4c0,0.2,0.1,0.4,0.3,0.5s0.4,0.2,0.6,0.3c0.3,0.1,0.5,0.2,0.8,0.3
		s0.6,0.2,0.8,0.4c0.3,0.2,0.5,0.4,0.6,0.6s0.3,0.6,0.3,1c0,0.4-0.1,0.8-0.2,1.1S46,88.8,45.7,89c-0.3,0.2-0.6,0.4-0.9,0.5
		c-0.3,0.1-0.7,0.1-1.1,0.1c-0.5,0-0.9-0.1-1.3-0.2c-0.4-0.1-0.8-0.4-1.2-0.7l1.2-1.3c0.2,0.2,0.4,0.4,0.6,0.5
		c0.3,0.1,0.5,0.2,0.8,0.2c0.1,0,0.3,0,0.4,0s0.3-0.1,0.4-0.1c0.1-0.1,0.2-0.1,0.3-0.2c0.1-0.1,0.1-0.2,0.1-0.3
		c0-0.2-0.1-0.4-0.3-0.5s-0.4-0.2-0.6-0.3c-0.3-0.1-0.5-0.2-0.8-0.3c-0.3-0.1-0.6-0.2-0.8-0.4c-0.3-0.2-0.5-0.4-0.6-0.6
		c-0.2-0.3-0.3-0.6-0.3-1c0-0.4,0.1-0.8,0.2-1.1s0.4-0.6,0.6-0.8c0.3-0.2,0.6-0.4,0.9-0.5c0.3-0.1,0.7-0.2,1.1-0.2
		c0.4,0,0.8,0.1,1.2,0.2c0.4,0.1,0.7,0.3,1.1,0.6L45.4,83.7z"/>
	<path class="st1" d="M49.2,83.4h-2.1v-1.5H53v1.5h-2.1v6h-1.6V83.4z"/>
	<path class="st1" d="M55.3,81.9h1.4l3.2,7.4H58l-0.6-1.6h-2.9l-0.6,1.6h-1.8L55.3,81.9z M55.9,84.1L55,86.4h1.8L55.9,84.1z"/>
	<path class="st1" d="M60.7,81.9h1.6v5.9h3v1.5h-4.7V81.9z"/>
	<path class="st1" d="M66.4,81.9H68v5.9h3v1.5h-4.7V81.9z"/>
</g>
<path d="M74.5,26.6l-5.2,5.1l-3-2.9l0,0l-3-3.1l5.3-5c0,0-3.7-1-6.9,1.9c-3.1,2.9-2.6,8-2.6,8L50,39.8L41.7,48c0,0-5.1-0.6-8,2.6
	c-2.9,3.1-1.9,6.9-1.9,6.9l5-5.3l3.1,3l0,0l2.9,3l-5.1,5.2c0,0,3.7,0.9,6.8-2c3.1-3,2.4-8.1,2.4-8.1l8-8.5l9.5-8.9
	c0,0,5.1,0.7,8.1-2.4C75.4,30.3,74.5,26.6,74.5,26.6z"/>
</svg>
