<?xml version="1.0" encoding="utf-8"?>
<!-- Generator: Adobe Illustrator 22.1.0, SVG Export Plug-In . SVG Version: 6.00 Build 0)  -->
<svg version="1.1" id="Layer_1" xmlns="http://www.w3.org/2000/svg" xmlns:xlink="http://www.w3.org/1999/xlink" x="0px" y="0px"
	 viewBox="0 0 100 100" style="enable-background:new 0 0 100 100;" xml:space="preserve">
<style type="text/css">
	.st0{enable-background:new    ;}
	.st1{fill:#231F20;}
</style>
<g>
	<g>
		<path d="M71.1,17.3L66.4,22l-2.7-2.6l0,0L61,16.6l4.7-4.5c0,0-3.3-0.9-6.2,1.7c-2.8,2.6-2.3,7.2-2.3,7.2L49,29.2l-7.5,7.3
			c0,0-4.6-0.5-7.2,2.3S32.6,45,32.6,45l4.5-4.7l2.8,2.7l0,0l2.6,2.7L38,50.4c0,0,3.4,0.8,6.1-1.8c2.8-2.7,2.1-7.2,2.1-7.2l7.2-7.6
			l8.5-8c0,0,4.6,0.6,7.2-2.1C71.9,20.7,71.1,17.3,71.1,17.3z"/>
		<path d="M64.9,49.4l3.8-4.1L43.2,19.5c0,0,1.1-1.7,0.1-3.8c0,0,2.2-3.1,7.6-1.7c0,0,1.5-0.2,0.4-1.8c0,0-2.3-3.4-7.2-2.5
			c0,0-3.1,1-4.3,3.4c0,0-2.6-0.3-4.9,1.8c-2.3,2.1-1.7,5.9-1.7,5.9L30.1,21l-3,3l5,5.3l3.3-3l0.5-2.9c0,0,2.4,0.4,3.5-0.1
			L64.9,49.4z"/>
	</g>
	<g>
		<path d="M70.9,63.6V53.4c0-0.4-0.3-0.7-0.6-0.6H29.7c-0.4,0-0.6,0.3-0.6,0.6v10.2c0,0.2,0.1,0.3,0.2,0.4c0.1,0.1,0.3,0.2,0.4,0.2
			h40.6C70.6,64.3,70.9,64,70.9,63.6z M30.4,63v-8.9h7.4v3.6c0,0.1,0.1,0.2,0.1,0.3c0,0,0.1,0,0.2,0c0.2,0,0.4-0.2,0.4-0.4V54h2.3v2
			c0,0.1,0.1,0.2,0.1,0.3c0.1,0.1,0.2,0.1,0.3,0.1c0.2,0,0.4-0.2,0.4-0.4v-2H44v2c0,0.1,0.1,0.2,0.1,0.3c0.1,0.1,0.2,0.1,0.3,0.1
			c0.2,0,0.4-0.2,0.4-0.4v-1.9h2.3v3.6c0,0.1,0.1,0.2,0.1,0.3c0.1,0.1,0.2,0.1,0.3,0.1c0.2,0,0.4-0.2,0.4-0.4v-3.6h2.3v2
			c0,0.1,0.1,0.2,0.1,0.3c0.1,0.1,0.2,0.1,0.3,0.1c0.2,0,0.4-0.2,0.4-0.4v-2h2.3v2c0,0.1,0.1,0.2,0.1,0.3c0.1,0.1,0.2,0.1,0.3,0.1
			c0.2,0,0.4-0.2,0.4-0.4v-2h2.3v3.6c0,0.1,0.1,0.2,0.1,0.3c0.1,0.1,0.2,0.1,0.3,0.1c0.2,0,0.4-0.2,0.4-0.4v-3.6h2.3v2
			c0,0.1,0.1,0.2,0.1,0.3c0.1,0.1,0.2,0.1,0.3,0.1c0.2,0,0.4-0.2,0.4-0.4v-2h2.3v2c0,0.1,0.1,0.2,0.1,0.3c0.1,0.1,0.2,0.1,0.3,0.1
			c0.2,0,0.4-0.2,0.4-0.4v-2h2.3v3.6c0,0.1,0.1,0.2,0.1,0.3c0.1,0.1,0.2,0.1,0.3,0.1c0.2,0,0.4-0.2,0.4-0.4v-3.6h2.7V63H30.4z"/>
		<path d="M34.1,57.1c-0.9,0-1.6,0.7-1.6,1.6c0,0.4,0.2,0.8,0.5,1.1s0.7,0.5,1.1,0.5c0.4,0,0.8-0.2,1.1-0.5s0.5-0.7,0.5-1.1
			C35.7,57.8,35,57.1,34.1,57.1z M34.1,59.5c-0.4,0-0.8-0.4-0.8-0.8c0-0.4,0.4-0.8,0.8-0.8c0.2,0,0.4,0.1,0.5,0.2
			c0.1,0.1,0.2,0.4,0.2,0.5c0,0.2-0.1,0.4-0.2,0.6C34.5,59.4,34.3,59.5,34.1,59.5z"/>
	</g>
</g>
<g class="st0">
	<path class="st1" d="M29.8,70.1h5.1v1.5h-3.4V73h3.2v1.5h-3.2V76H35v1.5h-5.2V70.1z"/>
	<path class="st1" d="M38.2,73.6l-2.5-3.6h2.1l1.6,2.6l1.5-2.6h2l-2.4,3.5l2.7,3.9h-2.1l-1.8-3l-1.8,3h-1.9L38.2,73.6z"/>
	<path class="st1" d="M43.9,70.1h2.8c0.4,0,0.8,0,1.1,0.1s0.6,0.2,0.9,0.4c0.3,0.2,0.5,0.4,0.6,0.7c0.2,0.3,0.2,0.7,0.2,1.1
		c0,0.4-0.1,0.8-0.2,1.1c-0.1,0.3-0.3,0.5-0.6,0.7c-0.2,0.2-0.5,0.3-0.9,0.4c-0.3,0.1-0.7,0.1-1.1,0.1h-1.2v2.9h-1.6V70.1z
		 M45.6,73.2h1.1c0.1,0,0.3,0,0.4,0c0.1,0,0.3-0.1,0.4-0.1c0.1-0.1,0.2-0.2,0.3-0.3c0.1-0.1,0.1-0.3,0.1-0.4c0-0.2,0-0.3-0.1-0.5
		c-0.1-0.1-0.2-0.2-0.3-0.3s-0.3-0.1-0.5-0.1s-0.3,0-0.5,0h-0.8V73.2z"/>
	<path class="st1" d="M50.6,70.1h5.1v1.5h-3.4V73h3.2v1.5h-3.2V76h3.6v1.5h-5.2V70.1z"/>
	<path class="st1" d="M57.2,70.1h2.9c0.4,0,0.7,0,1.1,0.1c0.3,0.1,0.6,0.2,0.9,0.4s0.5,0.4,0.6,0.7c0.2,0.3,0.2,0.7,0.2,1.1
		c0,0.5-0.1,1-0.4,1.3c-0.3,0.4-0.7,0.6-1.2,0.7l1.9,3.1h-2l-1.6-3h-0.8v3h-1.6V70.1z M58.8,73.1h1c0.1,0,0.3,0,0.5,0
		c0.2,0,0.3,0,0.4-0.1c0.1-0.1,0.2-0.1,0.3-0.2c0.1-0.1,0.1-0.3,0.1-0.5c0-0.2,0-0.3-0.1-0.5c-0.1-0.1-0.2-0.2-0.3-0.3
		c-0.1-0.1-0.3-0.1-0.4-0.1c-0.2,0-0.3,0-0.5,0h-1.1V73.1z"/>
	<path class="st1" d="M65.3,71.5h-2.1v-1.5H69v1.5h-2.1v6h-1.6V71.5z"/>
</g>
<g class="st0">
	<path class="st1" d="M28.4,81.5H30v7.4h-1.6V81.5z"/>
	<path class="st1" d="M31.5,81.5h2.2l3.2,5.2h0v-5.2h1.6v7.4h-2.1l-3.3-5.3h0v5.3h-1.6V81.5z"/>
	<path class="st1" d="M43.8,83.3c-0.1-0.2-0.3-0.3-0.5-0.4c-0.2-0.1-0.4-0.1-0.6-0.1c-0.1,0-0.2,0-0.4,0c-0.1,0-0.2,0.1-0.4,0.1
		c-0.1,0.1-0.2,0.1-0.3,0.2c-0.1,0.1-0.1,0.2-0.1,0.4c0,0.2,0.1,0.4,0.3,0.5s0.4,0.2,0.6,0.3c0.3,0.1,0.5,0.2,0.8,0.3
		s0.6,0.2,0.8,0.4c0.3,0.2,0.5,0.4,0.6,0.6s0.3,0.6,0.3,1c0,0.4-0.1,0.8-0.2,1.1s-0.4,0.6-0.6,0.8c-0.3,0.2-0.6,0.4-0.9,0.5
		c-0.3,0.1-0.7,0.1-1.1,0.1c-0.5,0-0.9-0.1-1.3-0.2c-0.4-0.1-0.8-0.4-1.2-0.7l1.2-1.3c0.2,0.2,0.4,0.4,0.6,0.5
		c0.3,0.1,0.5,0.2,0.8,0.2c0.1,0,0.3,0,0.4,0s0.3-0.1,0.4-0.1c0.1-0.1,0.2-0.1,0.3-0.2c0.1-0.1,0.1-0.2,0.1-0.3
		c0-0.2-0.1-0.4-0.3-0.5s-0.4-0.2-0.6-0.3c-0.3-0.1-0.5-0.2-0.8-0.3c-0.3-0.1-0.6-0.2-0.8-0.4c-0.3-0.2-0.5-0.4-0.6-0.6
		c-0.2-0.3-0.3-0.6-0.3-1c0-0.4,0.1-0.8,0.2-1.1s0.4-0.6,0.6-0.8c0.3-0.2,0.6-0.4,0.9-0.5c0.3-0.1,0.7-0.2,1.1-0.2
		c0.4,0,0.8,0.1,1.2,0.2c0.4,0.1,0.7,0.3,1.1,0.6L43.8,83.3z"/>
	<path class="st1" d="M47.6,82.9h-2.1v-1.5h5.9v1.5h-2.1v6h-1.6V82.9z"/>
	<path class="st1" d="M53.7,81.5H55l3.2,7.4h-1.9l-0.6-1.6h-2.9l-0.6,1.6h-1.8L53.7,81.5z M54.3,83.6l-0.9,2.3h1.8L54.3,83.6z"/>
	<path class="st1" d="M59.1,81.5h1.6v5.9h3v1.5h-4.7V81.5z"/>
	<path class="st1" d="M64.7,81.5h1.6v5.9h3v1.5h-4.7V81.5z"/>
</g>
</svg>
