<?xml version="1.0" encoding="utf-8"?>
<!-- Generator: Adobe Illustrator 22.1.0, SVG Export Plug-In . SVG Version: 6.00 Build 0)  -->
<svg version="1.1" id="Layer_1" xmlns="http://www.w3.org/2000/svg" xmlns:xlink="http://www.w3.org/1999/xlink" x="0px" y="0px"
	 viewBox="0 0 100 100" style="enable-background:new 0 0 100 100;" xml:space="preserve">
<style type="text/css">
	.st0{enable-background:new    ;}
	.st1{fill:#231F20;}
</style>
<path d="M72.5,25.8l-5.2,5.1l-3-2.9l0,0l-3-3.1l5.3-5c0,0-3.7-1-6.9,1.9c-3.1,2.9-2.6,8-2.6,8L48,39l-8.3,8.2c0,0-5.1-0.6-8,2.6
	c-2.9,3.1-1.9,6.9-1.9,6.9l5-5.3l3.1,3l0,0l2.9,3l-5.1,5.2c0,0,3.7,0.9,6.8-2c3.1-3,2.4-8.1,2.4-8.1l8-8.5l9.5-8.9
	c0,0,5.1,0.7,8.1-2.4C73.4,29.5,72.5,25.8,72.5,25.8z"/>
<path d="M65.7,61.4l4.3-4.5L41.6,28.1c0,0,1.2-1.9,0.1-4.2c0,0,2.5-3.4,8.4-1.9c0,0,1.7-0.2,0.4-2c0,0-2.6-3.7-8-2.8
	c0,0-3.5,1.1-4.8,3.7c0,0-2.9-0.3-5.5,2c-2.6,2.4-1.9,6.6-1.9,6.6l-3.5,0.3l-3.3,3.3L29,39l3.7-3.4l0.6-3.3c0,0,2.7,0.4,3.9-0.2
	L65.7,61.4z"/>
<g class="st0">
	<path class="st1" d="M19.2,69.7h2.5l1.7,4.9h0l1.7-4.9h2.5v7.4H26v-5.7h0l-2,5.7h-1.3l-1.9-5.7h0v5.7h-1.6V69.7z"/>
	<path class="st1" d="M28.7,73.4c0-0.6,0.1-1.1,0.3-1.6c0.2-0.5,0.5-0.9,0.8-1.2c0.4-0.3,0.8-0.6,1.3-0.8c0.5-0.2,1-0.3,1.6-0.3
		c0.6,0,1.1,0.1,1.6,0.3c0.5,0.2,0.9,0.4,1.3,0.8s0.6,0.8,0.8,1.2c0.2,0.5,0.3,1,0.3,1.6c0,0.6-0.1,1.1-0.3,1.6
		c-0.2,0.5-0.5,0.9-0.8,1.2c-0.4,0.3-0.8,0.6-1.3,0.8c-0.5,0.2-1,0.3-1.6,0.3c-0.6,0-1.1-0.1-1.6-0.3c-0.5-0.2-0.9-0.4-1.3-0.8
		c-0.4-0.3-0.6-0.8-0.8-1.2C28.8,74.6,28.7,74,28.7,73.4z M30.4,73.4c0,0.4,0.1,0.7,0.2,1s0.3,0.5,0.5,0.8s0.4,0.4,0.7,0.5
		c0.3,0.1,0.6,0.2,1,0.2c0.4,0,0.7-0.1,1-0.2c0.3-0.1,0.5-0.3,0.7-0.5c0.2-0.2,0.4-0.5,0.5-0.8c0.1-0.3,0.2-0.6,0.2-1
		c0-0.3-0.1-0.7-0.2-1c-0.1-0.3-0.3-0.5-0.5-0.8c-0.2-0.2-0.4-0.4-0.7-0.5s-0.6-0.2-1-0.2c-0.4,0-0.7,0.1-1,0.2s-0.5,0.3-0.7,0.5
		c-0.2,0.2-0.4,0.5-0.5,0.8C30.5,72.8,30.4,73.1,30.4,73.4z"/>
	<path class="st1" d="M37.9,69.7h2.5c0.6,0,1.2,0.1,1.7,0.2c0.5,0.1,1,0.3,1.4,0.6c0.4,0.3,0.7,0.7,1,1.2s0.4,1.1,0.4,1.7
		c0,0.6-0.1,1.1-0.3,1.6c-0.2,0.5-0.5,0.8-0.9,1.2s-0.8,0.5-1.3,0.7c-0.5,0.2-1,0.2-1.6,0.2h-2.7V69.7z M39.5,75.6h0.9
		c0.4,0,0.7,0,1.1-0.1s0.6-0.2,0.8-0.4c0.2-0.2,0.4-0.4,0.6-0.7s0.2-0.6,0.2-1.1c0-0.4-0.1-0.7-0.2-1c-0.1-0.3-0.3-0.5-0.6-0.7
		c-0.2-0.2-0.5-0.3-0.8-0.4s-0.6-0.1-1-0.1h-1V75.6z"/>
	<path class="st1" d="M45.9,69.7H51v1.5h-3.4v1.4h3.2v1.5h-3.2v1.5h3.6v1.5h-5.2V69.7z"/>
	<path class="st1" d="M52.5,69.7h2.9c0.4,0,0.7,0,1.1,0.1c0.3,0.1,0.6,0.2,0.9,0.4c0.3,0.2,0.5,0.4,0.6,0.7c0.2,0.3,0.2,0.7,0.2,1.1
		c0,0.5-0.1,1-0.4,1.3c-0.3,0.4-0.7,0.6-1.2,0.7l1.9,3.1h-2l-1.6-3h-0.8v3h-1.6V69.7z M54.1,72.8h1c0.1,0,0.3,0,0.5,0
		c0.2,0,0.3,0,0.4-0.1s0.2-0.1,0.3-0.2c0.1-0.1,0.1-0.3,0.1-0.5c0-0.2,0-0.3-0.1-0.5c-0.1-0.1-0.2-0.2-0.3-0.3
		c-0.1-0.1-0.3-0.1-0.4-0.1c-0.2,0-0.3,0-0.5,0h-1.1V72.8z"/>
	<path class="st1" d="M61.8,69.7h1.4l3.2,7.4h-1.9l-0.6-1.6H61l-0.6,1.6h-1.8L61.8,69.7z M62.4,71.9l-0.9,2.3h1.8L62.4,71.9z"/>
	<path class="st1" d="M67.6,71.1h-2.1v-1.5h5.9v1.5h-2.1v6h-1.6V71.1z"/>
	<path class="st1" d="M72.2,69.7h5.1v1.5h-3.4v1.4h3.2v1.5h-3.2v1.5h3.6v1.5h-5.2V69.7z"/>
</g>
<g class="st0">
	<path class="st1" d="M28.1,81.1h1.6v7.4h-1.6V81.1z"/>
	<path class="st1" d="M31.2,81.1h2.2l3.2,5.2h0v-5.2h1.6v7.4h-2.1l-3.3-5.3h0v5.3h-1.6V81.1z"/>
	<path class="st1" d="M43.5,82.9c-0.1-0.2-0.3-0.3-0.5-0.4c-0.2-0.1-0.4-0.1-0.6-0.1c-0.1,0-0.2,0-0.4,0c-0.1,0-0.2,0.1-0.4,0.1
		c-0.1,0.1-0.2,0.1-0.3,0.2c-0.1,0.1-0.1,0.2-0.1,0.4c0,0.2,0.1,0.4,0.3,0.5s0.4,0.2,0.6,0.3c0.3,0.1,0.5,0.2,0.8,0.3
		s0.6,0.2,0.8,0.4c0.3,0.2,0.5,0.4,0.6,0.6s0.3,0.6,0.3,1c0,0.4-0.1,0.8-0.2,1.1s-0.4,0.6-0.6,0.8c-0.3,0.2-0.6,0.4-0.9,0.5
		c-0.3,0.1-0.7,0.1-1.1,0.1c-0.5,0-0.9-0.1-1.3-0.2c-0.4-0.1-0.8-0.4-1.2-0.7l1.2-1.3c0.2,0.2,0.4,0.4,0.6,0.5
		c0.3,0.1,0.5,0.2,0.8,0.2c0.1,0,0.3,0,0.4,0s0.3-0.1,0.4-0.1c0.1-0.1,0.2-0.1,0.3-0.2c0.1-0.1,0.1-0.2,0.1-0.3
		c0-0.2-0.1-0.4-0.3-0.5s-0.4-0.2-0.6-0.3c-0.3-0.1-0.5-0.2-0.8-0.3c-0.3-0.1-0.6-0.2-0.8-0.4c-0.3-0.2-0.5-0.4-0.6-0.6
		c-0.2-0.3-0.3-0.6-0.3-1c0-0.4,0.1-0.8,0.2-1.1s0.4-0.6,0.6-0.8c0.3-0.2,0.6-0.4,0.9-0.5c0.3-0.1,0.7-0.2,1.1-0.2
		c0.4,0,0.8,0.1,1.2,0.2c0.4,0.1,0.7,0.3,1.1,0.6L43.5,82.9z"/>
	<path class="st1" d="M47.3,82.5h-2.1v-1.5H51v1.5h-2.1v6h-1.6V82.5z"/>
	<path class="st1" d="M53.3,81.1h1.4l3.2,7.4h-1.9L55.5,87h-2.9l-0.6,1.6h-1.8L53.3,81.1z M54,83.3l-0.9,2.3h1.8L54,83.3z"/>
	<path class="st1" d="M58.8,81.1h1.6V87h3v1.5h-4.7V81.1z"/>
	<path class="st1" d="M64.4,81.1H66V87h3v1.5h-4.7V81.1z"/>
</g>
</svg>
