<?xml version="1.0" encoding="utf-8"?>
<!-- Generator: Adobe Illustrator 22.1.0, SVG Export Plug-In . SVG Version: 6.00 Build 0)  -->
<svg version="1.1" id="Layer_1" xmlns="http://www.w3.org/2000/svg" xmlns:xlink="http://www.w3.org/1999/xlink" x="0px" y="0px"
	 viewBox="0 0 100 100" style="enable-background:new 0 0 100 100;" xml:space="preserve">
<style type="text/css">
	.st0{fill:none;stroke:#000000;stroke-width:3.9455;stroke-linecap:round;stroke-linejoin:round;stroke-miterlimit:10;}
	.st1{enable-background:new    ;}
	.st2{fill:#231F20;}
</style>
<g>
	<polyline class="st0" points="20.7,59.3 43.1,59.3 20.2,51.7 41.4,53.2 22,46 	"/>
	<g>
		<path d="M33.5,29.2c0.7-2.4,2.6-2.9,4.4-1.1l5.9,6.1c1.7,1.8,1.2,3.7-1.3,4.3l-7.8,1.8c-2.4,0.6-3.9-0.9-3.2-3.4L33.5,29.2z"/>
	</g>
	<path d="M66.3,24.4l-1,1.8c-1,1.7-1,1.7,0.7,2.7l1.8,1c1.7,1,1.7,1,2.7-0.7l1-1.8c1-1.8,1-1.8-0.7-2.8l-1.8-1
		C67.3,22.6,67.3,22.6,66.3,24.4z M74.9,32.1l-1.8,1c-1.8,1-1.8,1-0.7,2.7l1,1.8c1,1.8,1,1.8,2.7,0.7l1.8-1c1.8-1,1.8-1,0.8-2.7
		l-1-1.8C76.8,31,76.8,31,74.9,32.1z M51,26.2l-1-1.8c-1-1.8-1-1.8-2.8-0.8l-1.8,1c-1.8,1-1.8,1-0.7,2.8l1,1.8c1,1.8,1,1.8,2.7,0.7
		l1.8-1C52,27.9,52,27.9,51,26.2z M78.5,43.7h-2c-2,0-2,0-2,2v2c0,2,0,2,2,2h2c2,0,2,0,2-2v-2C80.6,43.7,80.6,43.7,78.5,43.7z
		 M61.1,24.8v-2c0-2,0-2-2-2h-2c-2,0-2,0-2,2v2c0,2,0,2,2,2h2C61.2,26.8,61.2,26.8,61.1,24.8z"/>
</g>
<g class="st1">
	<path class="st2" d="M35.1,69.8h5v1.5h-3.4v1.5h3.1v1.5h-3.1v2.9h-1.6V69.8z"/>
	<path class="st2" d="M47.6,74.4c0,0.4-0.1,0.8-0.2,1.2c-0.1,0.4-0.3,0.7-0.6,1c-0.3,0.3-0.6,0.5-1,0.6c-0.4,0.2-0.8,0.2-1.4,0.2
		c-0.5,0-1-0.1-1.4-0.2c-0.4-0.2-0.7-0.4-1-0.6c-0.3-0.3-0.5-0.6-0.6-1c-0.1-0.4-0.2-0.8-0.2-1.2v-4.6H43v4.5c0,0.2,0,0.4,0.1,0.6
		s0.2,0.4,0.3,0.5s0.3,0.3,0.5,0.3c0.2,0.1,0.4,0.1,0.6,0.1s0.4,0,0.6-0.1c0.2-0.1,0.3-0.2,0.5-0.3s0.2-0.3,0.3-0.5s0.1-0.4,0.1-0.6
		v-4.5h1.6V74.4z"/>
	<path class="st2" d="M49.2,69.8h1.6v5.9h3v1.5h-4.7V69.8z"/>
	<path class="st2" d="M54.8,69.8h1.6v5.9h3v1.5h-4.7V69.8z"/>
	<path class="st2" d="M61.1,74.1l-2.8-4.3h2l1.6,2.8l1.7-2.8h1.9l-2.8,4.3v3.2h-1.6V74.1z"/>
</g>
<g class="st1">
	<path class="st2" d="M19.3,83.2c-0.2-0.2-0.4-0.3-0.6-0.5c-0.2-0.1-0.5-0.2-0.8-0.2c-0.3,0-0.6,0.1-0.9,0.2
		c-0.3,0.1-0.5,0.3-0.7,0.5c-0.2,0.2-0.3,0.5-0.5,0.8c-0.1,0.3-0.2,0.6-0.2,1c0,0.4,0.1,0.7,0.2,1s0.3,0.5,0.4,0.8s0.4,0.4,0.7,0.5
		c0.3,0.1,0.5,0.2,0.8,0.2c0.3,0,0.6-0.1,0.9-0.2c0.3-0.1,0.5-0.3,0.6-0.6l1.4,1c-0.3,0.4-0.7,0.8-1.2,1c-0.5,0.2-1,0.3-1.5,0.3
		c-0.6,0-1.1-0.1-1.6-0.3c-0.5-0.2-0.9-0.4-1.3-0.8c-0.4-0.3-0.6-0.8-0.8-1.2c-0.2-0.5-0.3-1-0.3-1.6c0-0.6,0.1-1.1,0.3-1.6
		c0.2-0.5,0.5-0.9,0.8-1.2c0.4-0.3,0.8-0.6,1.3-0.8c0.5-0.2,1-0.3,1.6-0.3c0.2,0,0.4,0,0.7,0.1c0.2,0,0.5,0.1,0.7,0.2
		c0.2,0.1,0.4,0.2,0.6,0.3c0.2,0.1,0.4,0.3,0.5,0.5L19.3,83.2z"/>
	<path class="st2" d="M21.2,85c0-0.6,0.1-1.1,0.3-1.6c0.2-0.5,0.5-0.9,0.8-1.2c0.4-0.3,0.8-0.6,1.3-0.8c0.5-0.2,1-0.3,1.6-0.3
		c0.6,0,1.1,0.1,1.6,0.3c0.5,0.2,0.9,0.4,1.3,0.8s0.6,0.8,0.8,1.2c0.2,0.5,0.3,1,0.3,1.6c0,0.6-0.1,1.1-0.3,1.6
		c-0.2,0.5-0.5,0.9-0.8,1.2c-0.4,0.3-0.8,0.6-1.3,0.8c-0.5,0.2-1,0.3-1.6,0.3c-0.6,0-1.1-0.1-1.6-0.3c-0.5-0.2-0.9-0.4-1.3-0.8
		c-0.4-0.3-0.6-0.8-0.8-1.2C21.3,86.1,21.2,85.5,21.2,85z M22.9,85c0,0.4,0.1,0.7,0.2,1s0.3,0.5,0.5,0.8s0.4,0.4,0.7,0.5
		c0.3,0.1,0.6,0.2,1,0.2c0.4,0,0.7-0.1,1-0.2c0.3-0.1,0.5-0.3,0.7-0.5c0.2-0.2,0.4-0.5,0.5-0.8c0.1-0.3,0.2-0.6,0.2-1
		c0-0.3-0.1-0.7-0.2-1c-0.1-0.3-0.3-0.5-0.5-0.8c-0.2-0.2-0.4-0.4-0.7-0.5s-0.6-0.2-1-0.2c-0.4,0-0.7,0.1-1,0.2s-0.5,0.3-0.7,0.5
		c-0.2,0.2-0.4,0.5-0.5,0.8C22.9,84.3,22.9,84.6,22.9,85z"/>
	<path class="st2" d="M30.3,81.2h2.2l3.2,5.2h0v-5.2h1.6v7.4h-2.1L32,83.4h0v5.3h-1.6V81.2z"/>
	<path class="st2" d="M38.2,81.2h1.9l1.8,4.9h0l1.9-4.9h1.8l-3.1,7.4h-1.3L38.2,81.2z"/>
	<path class="st2" d="M46.4,81.2h5.1v1.5H48v1.4h3.2v1.5H48v1.5h3.6v1.5h-5.3V81.2z"/>
	<path class="st2" d="M53,81.2h2.9c0.4,0,0.7,0,1.1,0.1c0.3,0.1,0.6,0.2,0.9,0.4c0.3,0.2,0.5,0.4,0.6,0.7c0.2,0.3,0.2,0.7,0.2,1.1
		c0,0.5-0.1,1-0.4,1.3s-0.7,0.6-1.2,0.7l1.9,3.1h-2l-1.6-3h-0.8v3H53V81.2z M54.6,84.3h1c0.1,0,0.3,0,0.5,0c0.2,0,0.3,0,0.4-0.1
		c0.1-0.1,0.2-0.1,0.3-0.2c0.1-0.1,0.1-0.3,0.1-0.5c0-0.2,0-0.3-0.1-0.5c-0.1-0.1-0.2-0.2-0.3-0.3c-0.1-0.1-0.3-0.1-0.4-0.1
		c-0.2,0-0.3,0-0.5,0h-1.1V84.3z"/>
	<path class="st2" d="M61,82.7h-2.1v-1.5h5.9v1.5h-2.1v6H61V82.7z"/>
	<path class="st2" d="M65.6,81.2h1.6v7.4h-1.6V81.2z"/>
	<path class="st2" d="M68.7,81.2h2.8c0.3,0,0.6,0,1,0.1s0.6,0.1,0.9,0.3s0.5,0.3,0.6,0.6c0.2,0.2,0.2,0.6,0.2,1c0,0.4-0.1,0.8-0.4,1
		c-0.2,0.3-0.5,0.5-0.9,0.6v0c0.2,0,0.5,0.1,0.7,0.2s0.4,0.2,0.5,0.4c0.1,0.2,0.3,0.3,0.3,0.6s0.1,0.4,0.1,0.7c0,0.4-0.1,0.7-0.3,1
		c-0.2,0.3-0.4,0.5-0.7,0.6s-0.6,0.3-0.9,0.3c-0.3,0.1-0.7,0.1-1,0.1h-3.1V81.2z M70.4,84.2h1.2c0.1,0,0.2,0,0.4,0s0.2-0.1,0.3-0.1
		c0.1-0.1,0.2-0.1,0.2-0.3c0.1-0.1,0.1-0.2,0.1-0.4c0-0.2,0-0.3-0.1-0.4s-0.2-0.2-0.3-0.2c-0.1-0.1-0.2-0.1-0.4-0.1
		c-0.1,0-0.3,0-0.4,0h-1.1V84.2z M70.4,87.3h1.5c0.1,0,0.3,0,0.4,0s0.2-0.1,0.4-0.1c0.1-0.1,0.2-0.2,0.3-0.3
		c0.1-0.1,0.1-0.2,0.1-0.4c0-0.2,0-0.3-0.1-0.4c-0.1-0.1-0.2-0.2-0.3-0.2c-0.1-0.1-0.3-0.1-0.4-0.1c-0.2,0-0.3,0-0.4,0h-1.2V87.3z"
		/>
	<path class="st2" d="M75.6,81.2h1.6v5.9h3v1.5h-4.7V81.2z"/>
	<path class="st2" d="M81.3,81.2h5.1v1.5h-3.4v1.4h3.2v1.5h-3.2v1.5h3.6v1.5h-5.2V81.2z"/>
</g>
</svg>
